<svg width="18" height="18" viewBox="0 0 18 18" fill="none" xmlns="http://www.w3.org/2000/svg">
<path d="M13.05 16.5C9.98793 16.496 7.05245 15.2778 4.88727 13.1127C2.72208 10.9475 1.50393 8.012 1.49997 4.94996C1.49997 4.03497 1.86345 3.15745 2.51045 2.51045C3.15745 1.86344 4.03497 1.49996 4.94997 1.49996C5.14372 1.49849 5.33715 1.51607 5.52747 1.55246C5.71145 1.57969 5.89232 1.62491 6.06747 1.68746C6.19065 1.73069 6.30042 1.80531 6.38592 1.90397C6.47142 2.00262 6.52969 2.12189 6.55497 2.24996L7.58247 6.74996C7.61016 6.87211 7.60683 6.99925 7.57276 7.11978C7.5387 7.2403 7.475 7.35038 7.38747 7.43996C7.28997 7.54496 7.28247 7.55246 6.35997 8.03246C7.09871 9.65311 8.39487 10.9546 10.0125 11.7C10.5 10.77 10.5075 10.7625 10.6125 10.665C10.702 10.5774 10.8121 10.5137 10.9327 10.4797C11.0532 10.4456 11.1803 10.4423 11.3025 10.47L15.8025 11.4975C15.9264 11.5262 16.0411 11.5861 16.1355 11.6714C16.23 11.7566 16.3012 11.8646 16.3425 11.985C16.4058 12.163 16.4534 12.3462 16.485 12.5325C16.5152 12.721 16.5302 12.9116 16.53 13.1025C16.5161 14.0135 16.1424 14.8822 15.4904 15.5187C14.8385 16.1552 13.9611 16.508 13.05 16.5ZM4.94997 2.99996C4.4334 3.00194 3.93856 3.20802 3.57329 3.57329C3.20802 3.93856 3.00194 4.4334 2.99997 4.94996C3.00195 7.61478 4.06143 10.1699 5.94574 12.0542C7.83005 13.9385 10.3851 14.998 13.05 15C13.5665 14.998 14.0614 14.7919 14.4266 14.4266C14.7919 14.0614 14.998 13.5665 15 13.05V12.8025L11.52 12L11.3025 12.4125C10.965 13.065 10.7175 13.5375 10.0875 13.2825C8.84463 12.8376 7.71649 12.1215 6.78502 11.1861C5.85355 10.2508 5.14213 9.11965 4.70247 7.87496C4.43247 7.28996 4.94247 7.01996 5.58747 6.68246L5.99997 6.47996L5.19747 2.99996H4.94997Z" fill="#4B4A50"/>
</svg>
